<?xml version="1.0" encoding="utf-8"?>
<!-- Generator: $$$/GeneralStr/196=Adobe Illustrator 27.6.0, SVG Export Plug-In . SVG Version: 6.00 Build 0)  -->
<svg version="1.1" id="Calque_1" xmlns="http://www.w3.org/2000/svg" xmlns:xlink="http://www.w3.org/1999/xlink" x="0px" y="0px"
	 viewBox="0 0 24.9 24.2" style="enable-background:new 0 0 24.9 24.2;" xml:space="preserve">
<style type="text/css">
	.st0{fill:none;stroke:#000000;stroke-width:2;stroke-miterlimit:10;}
</style>
<path class="st0" d="M17.5,41.6"/>
<path class="st0" d="M8.3,32.4"/>
<g>
	<path d="M22.6,12.7c1.9-1.9,0.9-5.5-2.2-8.6L20.3,4c-3.1-3.1-6.8-4.1-8.6-2.2l-0.1,0.1c0,0.1-0.1,0.1-0.2,0.2L8.2,5.3
		c-2,2-2.4,4.2-2.4,5.7c0,0.2,0,0.4,0,0.6c0.1,1,0.3,1.8,0.5,2.4l-0.2,0.2c-1.1-0.4-2.4-0.1-3.2,0.7C2.4,15.4,2,16.2,2,17
		c0,0.8,0.3,1.6,0.9,2.2c0.4,0.4,0.9,0.7,1.5,0.8c0.1,0.6,0.4,1.1,0.8,1.5c0.6,0.6,1.4,0.9,2.2,0.9c0.8,0,1.6-0.3,2.2-0.9
		c0.9-0.9,1.1-2.1,0.7-3.2l0.2-0.2c0.6,0.2,1.4,0.4,2.4,0.5c0.2,0,0.4,0,0.6,0c1.5,0,3.7-0.4,5.7-2.4l3.2-3.2
		c0.1-0.1,0.1-0.1,0.2-0.2L22.6,12.7C22.6,12.7,22.6,12.7,22.6,12.7L22.6,12.7z M18.9,5.4L18.9,5.4c2.5,2.5,3.2,5,2.3,5.9l0,0
		c-0.3,0.1-2.1-0.4-4.9-3.3c-2.5-2.5-3.3-4.4-3.1-4.8C14,2.3,16.5,3,18.9,5.4z M13.1,3.2L13.1,3.2C13.1,3.2,13.1,3.2,13.1,3.2
		C13.1,3.2,13.1,3.2,13.1,3.2z M17.7,14.8c-1.2,1.2-2.7,1.8-4.3,1.8c-0.2,0-0.3,0-0.5,0c-1-0.1-1.8-0.4-2.3-0.6l-0.6-0.3L7.8,18
		l0.5,0.7c0.3,0.4,0.3,1-0.1,1.4c-0.4,0.4-1.1,0.4-1.5,0c-0.2-0.2-0.3-0.5-0.3-0.9l0-0.5L5.7,18l-0.5,0c-0.3,0-0.6-0.1-0.9-0.3
		C4.1,17.5,4,17.3,4,17c0-0.3,0.1-0.6,0.3-0.8c0.4-0.4,1-0.4,1.4-0.1l0.7,0.5l2.3-2.3l-0.3-0.6c-0.2-0.4-0.5-1.3-0.6-2.3
		c0-0.1,0-0.3,0-0.5c0-1.6,0.6-3.1,1.8-4.3l1.9-1.9c0.1,0.2,0.2,0.4,0.3,0.6c0.6,1.2,1.7,2.6,3.1,4c1.4,1.4,2.8,2.5,4,3.2
		c0.3,0.1,0.5,0.3,0.7,0.3L17.7,14.8z"/>
	<path d="M18.5,8.2c0.2,0,0.3-0.1,0.5-0.2c0.2-0.2,0.3-0.5,0-1.1c-0.2-0.3-0.4-0.6-0.7-0.9c-0.3-0.3-0.6-0.5-0.9-0.7
		c-0.6-0.3-0.9-0.2-1.1,0c-0.6,0.6,0.3,1.6,0.7,2C17.3,7.6,17.9,8.2,18.5,8.2z"/>
</g>
</svg>
