<?xml version="1.0" encoding="utf-8"?>
<!-- Generator: $$$/GeneralStr/196=Adobe Illustrator 27.6.0, SVG Export Plug-In . SVG Version: 6.00 Build 0)  -->
<svg version="1.1" id="Calque_1" xmlns="http://www.w3.org/2000/svg" xmlns:xlink="http://www.w3.org/1999/xlink" x="0px" y="0px"
	 viewBox="0 0 102 99.9" style="enable-background:new 0 0 102 99.9;" xml:space="preserve">
<path d="M95.4,37.3C93.4,30.9,89,24,83,18C74.7,9.7,64.8,4.6,57,4.6c-3.3,0-6.1,0.9-8.2,2.7l0,0L32.2,23.8c-3.4,3.4-6,7.2-7.7,11.3
	c-5.4,13.1-0.2,25,0.8,27.2l-4.9,4.9c-1.7-1.2-3.7-1.8-5.7-1.8c-2.7,0-5.3,1.1-7.2,3c-1.9,1.9-3,4.5-3,7.2c0,2.7,1.1,5.3,3,7.2
	c2,2,4.7,3,7.5,3c-0.1,2.8,1,5.5,3,7.5c1.9,1.9,4.5,3,7.2,3c2.7,0,5.3-1.1,7.2-3c3.4-3.4,3.9-8.9,1.2-12.9l4.9-4.9
	c2.7,1.3,7.2,2.8,12.3,3.2c0.8,0.1,1.7,0.1,2.5,0.1c6.2,0,15.3-1.8,23.7-10.1l14.8-14.8c0.5-0.4,0.9-0.7,1.3-1.1
	C96.5,49.4,97.3,43.9,95.4,37.3z M29.5,78.9c-0.4,0.4-0.6,0.9-0.6,1.4c0,0.5,0.2,1.1,0.6,1.4l0.3-0.4v0l-0.3,0.4
	c2.4,2.4,2.4,6.3,0,8.7c-1.2,1.2-2.7,1.8-4.4,1.8c-1.7,0-3.2-0.6-4.4-1.8c-1.7-1.7-2.2-4.2-1.4-6.5c0.3-0.7,0.1-1.5-0.5-2.1
	c-0.4-0.4-0.9-0.6-1.4-0.6c-0.2,0-0.5,0-0.7,0.1c-2.3,0.8-4.8,0.2-6.5-1.4c-1.2-1.2-1.8-2.7-1.8-4.4c0-1.7,0.6-3.2,1.8-4.4
	c1.2-1.2,2.7-1.8,4.4-1.8s3.2,0.6,4.4,1.8c0.4,0.4,0.9,0.6,1.4,0.6c0.6,0,1.1-0.2,1.4-0.5l5.8-5.8l7.5,7.5L29.5,78.9z M39.4,71.5
	L29.4,61.4c-0.5-0.9-6.4-12.1-1.2-24.7c1.5-3.6,3.8-7,6.8-10l9.9-9.9c0,2.2,0.4,4.5,1.2,7c2,6.3,6.3,13,12.2,18.9
	C66.5,50.8,76.3,55.9,84,56l-9.8,9.8C58.8,81.2,40.5,72.1,39.4,71.5z M50,22.5c-1.7-5.3-1.3-9.5,1.1-11.9c1.4-1.4,3.4-2.1,5.9-2.1
	c6.8,0,15.6,4.7,23.2,12.2c10.2,10.2,14.9,23,10.7,28.5l-0.1-0.1l-1.5,1.5C88,51.6,86.3,52,84.3,52c-6.8,0-15.6-4.7-23.2-12.2
	C55.8,34.4,51.8,28.3,50,22.5z"/>
<path d="M74.4,26.6c-2.9-2.9-6.4-4.7-8.9-4.7c-1,0-1.8,0.3-2.3,0.8c-0.9,0.9-1.1,2.6-0.4,4.6c0.7,2.2,2.3,4.6,4.3,6.6
	c2.9,2.9,6.4,4.7,8.9,4.7c1,0,1.8-0.3,2.3-0.8v0C80,36.1,78.9,31.1,74.4,26.6z M74.9,34.5c-1.2-0.4-3.1-1.3-5.1-3.3
	c-1.6-1.6-2.8-3.4-3.3-5c0,0,0,0,0,0c1.3,0.4,3.2,1.4,5.1,3.3C73.4,31.3,74.5,33.2,74.9,34.5z"/>
</svg>
