<?xml version="1.0" encoding="utf-8"?>
<!-- Generator: $$$/GeneralStr/196=Adobe Illustrator 27.6.0, SVG Export Plug-In . SVG Version: 6.00 Build 0)  -->
<svg version="1.1" id="Calque_1" xmlns="http://www.w3.org/2000/svg" xmlns:xlink="http://www.w3.org/1999/xlink" x="0px" y="0px"
	 viewBox="0 0 94.8 94.2" style="enable-background:new 0 0 94.8 94.2;" xml:space="preserve">
<style type="text/css">
	.st0{stroke:#000000;stroke-miterlimit:10;}
</style>
<path class="st0" d="M1.5,72.8c0,2.6,1,5,2.8,6.8c2,2,4.9,3,7.7,2.8c-0.2,2.8,0.8,5.6,2.8,7.7C16.6,92,19,93,21.6,93  c2.6,0,5-1,6.8-2.8c3.4-3.4,3.7-8.8,0.9-12.6l5.4-5.4c2.2,1.1,6.9,2.9,12.5,3.3c0.8,0.1,1.6,0.1,2.5,0.1c6.6,0,15.3-2,23.3-10  l14.9-14.9c0.4-0.3,0.9-0.6,1.2-1c6.7-6.7,2.3-21.7-10.1-34.1C70.9,7.3,61,2.3,53.4,2.3c-3.4,0-6.2,1-8.2,2.9l0,0L45,5.3  c0,0,0,0,0,0c0,0,0,0,0,0l-16,16c-3.4,3.4-5.9,7.1-7.6,11.2c-4.8,11.7-1.1,23.2,1,27.1l-5.4,5.4c-1.7-1.2-3.7-1.9-5.8-1.9  c-2.6,0-5,1-6.8,2.8C2.5,67.8,1.5,70.2,1.5,72.8z M86,48.3c-1.4,0.9-3.1,1.4-5.2,1.4c-6.9,0-15.9-4.7-23.5-12.4  c-5.5-5.5-9.5-11.7-11.3-17.5c-1.7-5.5-1.3-9.9,1.2-12.4l0,0c1.5-1.5,3.6-2.2,6.3-2.2c6.9,0,15.9,4.7,23.5,12.4  c10.7,10.7,15.3,24.1,10.3,29.6l-0.1-0.1L86,48.3z M25.4,58.9c-0.3-0.6-6.6-12.2-1.2-25.2c1.5-3.7,3.9-7.1,7-10.2l10.8-10.8  c-0.2,2.4,0.2,5.1,1.1,8.1c2,6.3,6.3,12.9,12.1,18.7c8.2,8.2,18,13.2,25.7,13.2c0,0,0,0,0,0c0.3,0,0.6,0,0.9,0L70.9,63.4  c-15.9,15.9-34.7,6.1-35.4,5.7L25.4,58.9z M4.5,72.8c0-1.8,0.7-3.5,2-4.7s2.9-2,4.7-2c1.8,0,3.5,0.7,4.7,2c0.3,0.3,0.7,0.5,1.1,0.5  c0.4,0,0.8-0.1,1.1-0.4l6.2-6.2l8.2,8.2l-6.2,6.2c-0.3,0.3-0.4,0.7-0.4,1.1s0.2,0.8,0.5,1.1c0,0,0.1,0.1,0.1,0.1  c2.6,2.6,2.6,6.8,0,9.4c-1.3,1.3-2.9,2-4.7,2s-3.5-0.7-4.7-2c-1.8-1.8-2.4-4.6-1.6-7c0.2-0.5,0.1-1.2-0.4-1.6  c-0.4-0.4-1-0.5-1.6-0.3c-2.4,0.9-5.2,0.3-7-1.6C5.2,76.3,4.5,74.6,4.5,72.8z"/>
<path class="st0" d="M74.3,34.7c1.6-1.6,0.4-6.3-3.9-10.6c-2.8-2.8-6.1-4.6-8.6-4.6c-0.9,0-1.5,0.2-2,0.7c-0.8,0.8-0.9,2.3-0.3,4.1  c0.7,2.1,2.2,4.4,4.2,6.4c2.8,2.8,6.1,4.6,8.6,4.6C73.2,35.4,73.8,35.1,74.3,34.7z M71.9,32.3c-1.3-0.2-3.7-1.2-6.1-3.6  c-1.7-1.7-2.9-3.6-3.4-5.2c-0.1-0.4-0.2-0.6-0.2-0.9c1.3,0.2,3.7,1.2,6.1,3.6C70.9,28.8,71.8,31.2,71.9,32.3z"/>
</svg>
